<svg xmlns="http://www.w3.org/2000/svg" fill="none" viewBox="0 0 100 42"><path fill="currentColor" d="M.28 39.679V12.433q0-.425.273-.699a.95.95 0 0 1 .698-.272h5.27q.426.001.7.272.27.27.271.699v8.914a6.9 6.9 0 0 1 2.276-1.435q1.268-.484 2.763-.484 4.418 0 7.431 3.16 3.014 3.157 3.015 7.75 0 4.593-3.015 7.752-3.013 3.158-7.431 3.159-1.492 0-2.763-.485a6.7 6.7 0 0 1-2.276-1.452v.369a.95.95 0 0 1-.272.699q-.27.272-.698.271H1.249a.94.94 0 0 1-.698-.272.95.95 0 0 1-.272-.698zm7.113-9.34q0 1.762 1.21 3.004 1.211 1.24 2.955 1.24t2.955-1.24 1.21-3.005-1.21-3.004-2.955-1.24q-1.745-.001-2.955 1.24t-1.21 3.004M26.769 39.66V12.43q0-.424.272-.698a.95.95 0 0 1 .698-.272h5.27q.426.001.7.272.27.27.271.699v27.228a.97.97 0 0 1-.282.699.9.9 0 0 1-.668.29h-5.251a.98.98 0 0 1-.707-.29.94.94 0 0 1-.3-.699z"/><g filter="url(#a)"><path fill="url(#b)" d="M46.387 10.687q0 1.59-1.193 2.742-1.19 1.153-2.84 1.153-1.647 0-2.85-1.153-1.2-1.153-1.2-2.742 0-1.59 1.2-2.763 1.203-1.173 2.85-1.173c1.1 0 2.044.391 2.84 1.173q1.192 1.173 1.193 2.763"/></g><path fill="currentColor" d="M99.992 37.354q0 1.59-1.192 2.742-1.19 1.152-2.84 1.153-1.649 0-2.85-1.153t-1.2-2.742 1.2-2.763q1.202-1.172 2.85-1.172c1.1 0 2.044.39 2.84 1.172q1.19 1.173 1.192 2.763M45.94 20.978v18.701q0 .407-.281.689a.96.96 0 0 1-.707.281H39.72a.95.95 0 0 1-.706-.281.94.94 0 0 1-.282-.689V20.978q0-.407.282-.689a.96.96 0 0 1 .706-.282h5.233q.426 0 .707.282a.94.94 0 0 1 .282.689M59.558 41.054q-3.391 0-5.416-1.774-2.026-1.773-2.026-4.913v-8.392h-2.131a.9.9 0 0 1-.67-.29 1 1 0 0 1-.28-.716v-1.493q-.001-.657.124-1.065t.455-.776l5.135-5.698q.658-.716 1.096-.93.435-.214 1.133-.213h1.375q.407 0 .688.282a.94.94 0 0 1 .282.689v4.244h4.535q.407 0 .698.282.291.28.29.689v3.993a.98.98 0 0 1-.29.716.96.96 0 0 1-.698.29h-4.535v6.88q0 .755.407 1.192.408.438 1.106.437.407 0 .87-.165.465-.165 1.066-.514.465-.271.834-.272.096 0 .349.058.252.059.62.581l1.82 2.733q.291.446.29.871 0 .039-.01.282-.007.244-.358.591-1.106 1.125-2.918 1.764-1.812.64-3.846.64zM87.236 25.647l-8.178 8.837h8.14q.409 0 .68.272.27.27.271.678v4.263a.92.92 0 0 1-.272.678.92.92 0 0 1-.678.272H70.28a.98.98 0 0 1-.706-.29.94.94 0 0 1-.3-.698v-3.508q0-.37.097-.62.098-.25.35-.504l8.352-8.856h-7.481a.96.96 0 0 1-.699-.29.95.95 0 0 1-.29-.698v-4.168q0-.406.3-.706t.689-.3h16.104q.407 0 .698.3t.29.706v3.489q0 .369-.097.62a1.7 1.7 0 0 1-.35.523z"/><defs><linearGradient id="b" x1="39.763" x2="46.387" y1="12.293" y2="9.42" gradientUnits="userSpaceOnUse"><stop stop-color="#065bff"/><stop offset="1" stop-color="#dd40ff"/></linearGradient><filter id="a" width="28.082" height="27.831" x="28.304" y=".751" color-interpolation-filters="sRGB" filterUnits="userSpaceOnUse"><feFlood flood-opacity="0" result="BackgroundImageFix"/><feColorMatrix in="SourceAlpha" result="hardAlpha" values="0 0 0 0 0 0 0 0 0 0 0 0 0 0 0 0 0 0 127 0"/><feOffset dy="1"/><feGaussianBlur stdDeviation=".5"/><feComposite in2="hardAlpha" operator="out"/><feColorMatrix values="0 0 0 0 1 0 0 0 0 1 0 0 0 0 1 0 0 0 1 0"/><feBlend in2="BackgroundImageFix" result="effect1_dropShadow_232_797"/><feColorMatrix in="SourceAlpha" result="hardAlpha" values="0 0 0 0 0 0 0 0 0 0 0 0 0 0 0 0 0 0 127 0"/><feOffset dy="4"/><feGaussianBlur stdDeviation="5"/><feComposite in2="hardAlpha" operator="out"/><feColorMatrix values="0 0 0 0 0 0 0 0 0 0 0 0 0 0 0 0 0 0 0.3 0"/><feBlend in2="effect1_dropShadow_232_797" result="effect2_dropShadow_232_797"/><feBlend in="SourceGraphic" in2="effect2_dropShadow_232_797" result="shape"/></filter></defs></svg>