<svg xmlns="http://www.w3.org/2000/svg" fill="none" viewBox="0 0 131 21" height="21" width="131">
<path fill="#43373C" d="M7.25403 20.26C3.32803 20.26 0.80603 17.556 0.80603 13.266C0.80603 9.20999 3.19803 6.60999 6.91603 6.60999C10.426 6.60999 12.662 8.84599 12.662 12.408C12.662 13.292 12.324 13.708 11.648 13.708H3.97803C3.87403 13.708 3.82203 13.76 3.82203 13.89C3.82203 16.256 5.40803 17.894 7.69603 17.894C8.73603 17.894 9.51603 17.66 10.478 17.114C10.816 16.932 11.05 16.854 11.258 16.854C11.466 16.854 11.622 16.932 11.752 17.036C11.908 17.166 11.96 17.348 11.96 17.53C11.96 17.816 11.856 18.128 11.648 18.388C10.66 19.61 9.12603 20.26 7.25403 20.26ZM3.97803 11.81H9.51603C9.62003 11.81 9.67203 11.758 9.67203 11.628C9.67203 9.70399 8.60603 8.50799 6.89003 8.50799C5.07003 8.50799 3.82203 9.88599 3.82203 11.628C3.82203 11.758 3.87403 11.81 3.97803 11.81Z"></path>
<path fill="#43373C" d="M25.7679 7.80599C25.7679 8.35199 25.1179 8.66399 24.3379 10.718L21.1659 19.064C20.9059 19.792 20.4379 20.078 19.5799 20.078C18.5659 20.078 18.1499 19.74 17.8899 19.064L14.7439 10.718C13.9639 8.66399 13.3139 8.35199 13.3139 7.80599C13.3139 6.89599 13.8859 6.79199 15.3939 6.79199C17.0059 6.79199 17.4739 6.94799 17.4739 7.80599C17.4739 8.11799 17.2919 8.37799 17.2919 8.89799C17.2919 9.31399 17.3699 9.88599 17.7339 10.822L19.5799 15.658C19.7879 16.152 19.8919 16.282 20.0739 16.282C20.2559 16.282 20.3339 16.152 20.5939 15.528L22.3879 10.822C22.7519 9.88599 22.8559 9.28799 22.8559 8.89799C22.8559 8.37799 22.6479 8.11799 22.6479 7.80599C22.6479 6.99999 23.1159 6.79199 24.2599 6.79199C25.3519 6.79199 25.7679 7.02599 25.7679 7.80599Z"></path>
<path fill="#43373C" d="M32.5431 20.26C28.6171 20.26 26.0951 17.556 26.0951 13.266C26.0951 9.20999 28.4871 6.60999 32.2051 6.60999C35.7151 6.60999 37.9511 8.84599 37.9511 12.408C37.9511 13.292 37.6131 13.708 36.9371 13.708H29.2671C29.1631 13.708 29.1111 13.76 29.1111 13.89C29.1111 16.256 30.6971 17.894 32.9851 17.894C34.0251 17.894 34.8051 17.66 35.7671 17.114C36.1051 16.932 36.3391 16.854 36.5471 16.854C36.7551 16.854 36.9111 16.932 37.0411 17.036C37.1971 17.166 37.2491 17.348 37.2491 17.53C37.2491 17.816 37.1451 18.128 36.9371 18.388C35.9491 19.61 34.4151 20.26 32.5431 20.26ZM29.2671 11.81H34.8051C34.9091 11.81 34.9611 11.758 34.9611 11.628C34.9611 9.70399 33.8951 8.50799 32.1791 8.50799C30.3591 8.50799 29.1111 9.88599 29.1111 11.628C29.1111 11.758 29.1631 11.81 29.2671 11.81Z"></path>
<path fill="#43373C" d="M41.6358 20.078C40.2838 20.078 39.8678 19.662 39.8678 19.038C39.8678 18.596 40.2058 17.868 40.2058 16.126V10.952C40.2058 9.20999 39.6338 8.84599 39.6338 7.93599C39.6338 7.25999 40.2058 7.02599 41.0638 6.81799C41.7398 6.63599 42.2078 6.60999 42.3378 6.60999C42.7538 6.60999 43.0398 6.89599 43.0398 7.31199V8.16999C43.0398 8.58599 43.1178 8.68999 43.2738 8.68999C43.7418 8.68999 44.1058 6.60999 46.2898 6.60999C47.5118 6.60999 48.2918 7.33799 48.2918 8.55999C48.2918 9.72999 47.6418 10.536 46.5238 10.536C45.8218 10.536 45.3798 10.146 45.1718 9.44399C45.0938 9.18399 44.9898 9.05399 44.6778 9.05399C43.8718 9.05399 43.0398 10.744 43.0398 12.486V16.126C43.0398 17.868 43.5858 18.596 43.5858 19.038C43.5858 19.662 43.1698 20.078 41.6358 20.078Z"></path>
<path fill="#43373C" d="M55.599 20.26C51.777 20.26 49.151 17.478 49.151 13.396C49.151 9.39199 51.829 6.60999 55.625 6.60999C58.485 6.60999 60.513 8.27399 60.513 10.51C60.513 11.238 59.889 11.836 59.005 11.836C58.017 11.836 57.497 11.316 57.497 10.458C57.497 9.23599 56.743 8.50799 55.573 8.50799C53.545 8.50799 52.141 10.432 52.141 13.266C52.141 16.074 53.649 17.894 55.989 17.894C57.029 17.894 57.809 17.66 58.771 17.114C59.109 16.932 59.343 16.854 59.551 16.854C59.759 16.854 59.915 16.932 60.045 17.036C60.201 17.166 60.253 17.348 60.253 17.53C60.253 17.816 60.149 18.128 59.941 18.388C58.953 19.61 57.471 20.26 55.599 20.26Z"></path>
<path fill="#43373C" d="M65.4573 16.126C65.4573 17.868 65.8213 18.596 65.8213 19.038C65.8213 19.662 65.3793 20.078 64.0533 20.078C62.7013 20.078 62.2853 19.662 62.2853 19.038C62.2853 18.596 62.6233 17.868 62.6233 16.126V5.10199C62.6233 3.35999 62.0513 2.99599 62.0513 2.08599C62.0513 1.40999 62.6233 1.17599 63.4813 0.967993C64.1573 0.785994 64.6253 0.759995 64.7553 0.759995C65.1713 0.759995 65.4573 1.04599 65.4573 1.46199V16.126Z"></path>
<path fill="#43373C" d="M74.2345 20.26C70.3085 20.26 67.7865 17.556 67.7865 13.266C67.7865 9.20999 70.1785 6.60999 73.8965 6.60999C77.4065 6.60999 79.6425 8.84599 79.6425 12.408C79.6425 13.292 79.3045 13.708 78.6285 13.708H70.9585C70.8545 13.708 70.8025 13.76 70.8025 13.89C70.8025 16.256 72.3885 17.894 74.6765 17.894C75.7165 17.894 76.4965 17.66 77.4585 17.114C77.7965 16.932 78.0305 16.854 78.2385 16.854C78.4465 16.854 78.6025 16.932 78.7325 17.036C78.8885 17.166 78.9405 17.348 78.9405 17.53C78.9405 17.816 78.8365 18.128 78.6285 18.388C77.6405 19.61 76.1065 20.26 74.2345 20.26ZM70.9585 11.81H76.4965C76.6005 11.81 76.6525 11.758 76.6525 11.628C76.6525 9.70399 75.5865 8.50799 73.8705 8.50799C72.0505 8.50799 70.8025 9.88599 70.8025 11.628C70.8025 11.758 70.8545 11.81 70.9585 11.81Z"></path>
<path fill="#43373C" d="M85.0692 20.26C82.7292 20.26 80.9612 18.648 80.9612 16.49C80.9612 13.812 82.9892 12.46 87.0192 12.46H88.4232C88.9172 12.46 89.0732 12.226 89.0732 11.68C89.0732 9.54799 88.3192 8.50799 86.7592 8.50799C84.6792 8.50799 84.3412 10.562 82.9372 10.562C82.0792 10.562 81.6892 10.016 81.6892 9.44399C81.6892 8.87199 82.0792 8.27399 82.7032 7.80599C83.7172 7.05199 85.0692 6.60999 86.7852 6.60999C90.0092 6.60999 91.9072 8.29999 91.9072 11.498V17.218C91.9072 17.92 92.1152 18.154 92.5832 18.154C92.9732 18.154 93.2332 18.44 93.2332 18.804C93.2332 19.714 92.4532 20.26 91.3352 20.26C90.4252 20.26 89.6712 19.766 89.4112 18.882C89.3332 18.674 89.2292 18.596 89.0992 18.596C88.9692 18.596 88.8652 18.648 88.2672 19.142C87.4352 19.896 86.3172 20.26 85.0692 20.26ZM85.9532 18.362C87.5912 18.362 89.0732 16.776 89.0732 14.982V14.696C89.0732 14.358 88.9432 14.202 88.6052 14.202H87.2272C84.9132 14.202 83.9512 14.774 83.9512 16.308C83.9512 17.556 84.8092 18.362 85.9532 18.362Z"></path>
<path fill="#43373C" d="M96.6827 20.078C95.3307 20.078 94.9147 19.662 94.9147 19.038C94.9147 18.596 95.2527 17.868 95.2527 16.126V10.952C95.2527 9.20999 94.6807 8.84599 94.6807 7.93599C94.6807 7.25999 95.2527 7.02599 96.1107 6.81799C96.7867 6.63599 97.2547 6.60999 97.3847 6.60999C97.8007 6.60999 98.0867 6.89599 98.0867 7.31199V8.03999C98.0867 8.40399 98.1907 8.48199 98.3207 8.48199C98.6327 8.48199 99.6207 6.60999 101.987 6.60999C104.925 6.60999 106.303 8.50799 106.303 11.784V16.126C106.303 17.868 106.667 18.596 106.667 19.038C106.667 19.662 106.225 20.078 104.899 20.078C103.365 20.078 102.949 19.662 102.949 19.038C102.949 18.596 103.469 17.868 103.469 16.126V11.966C103.469 9.62599 102.923 8.50799 101.207 8.50799C99.4907 8.50799 98.0867 10.484 98.0867 12.616V16.126C98.0867 17.868 98.6327 18.596 98.6327 19.038C98.6327 19.662 98.2167 20.078 96.6827 20.078Z"></path>
<path fill="#43373C" d="M114.936 20.26C111.01 20.26 108.488 17.556 108.488 13.266C108.488 9.20999 110.88 6.60999 114.598 6.60999C118.108 6.60999 120.344 8.84599 120.344 12.408C120.344 13.292 120.006 13.708 119.33 13.708H111.66C111.556 13.708 111.504 13.76 111.504 13.89C111.504 16.256 113.09 17.894 115.378 17.894C116.418 17.894 117.198 17.66 118.16 17.114C118.498 16.932 118.732 16.854 118.94 16.854C119.148 16.854 119.304 16.932 119.434 17.036C119.59 17.166 119.642 17.348 119.642 17.53C119.642 17.816 119.538 18.128 119.33 18.388C118.342 19.61 116.808 20.26 114.936 20.26ZM111.66 11.81H117.198C117.302 11.81 117.354 11.758 117.354 11.628C117.354 9.70399 116.288 8.50799 114.572 8.50799C112.752 8.50799 111.504 9.88599 111.504 11.628C111.504 11.758 111.556 11.81 111.66 11.81Z"></path>
<path fill="#43373C" d="M124.028 20.078C122.676 20.078 122.26 19.662 122.26 19.038C122.26 18.596 122.598 17.868 122.598 16.126V10.952C122.598 9.20999 122.026 8.84599 122.026 7.93599C122.026 7.25999 122.598 7.02599 123.456 6.81799C124.132 6.63599 124.6 6.60999 124.73 6.60999C125.146 6.60999 125.432 6.89599 125.432 7.31199V8.16999C125.432 8.58599 125.51 8.68999 125.666 8.68999C126.134 8.68999 126.498 6.60999 128.682 6.60999C129.904 6.60999 130.684 7.33799 130.684 8.55999C130.684 9.72999 130.034 10.536 128.916 10.536C128.214 10.536 127.772 10.146 127.564 9.44399C127.486 9.18399 127.382 9.05399 127.07 9.05399C126.264 9.05399 125.432 10.744 125.432 12.486V16.126C125.432 17.868 125.978 18.596 125.978 19.038C125.978 19.662 125.562 20.078 124.028 20.078Z"></path>
</svg>
