<svg width="216" height="23" viewBox="0 0 216 23" fill="none" xmlns="http://www.w3.org/2000/svg">
<path d="M197.096 8.152C196.856 7.88 196.576 7.64 196.256 7.432C195.936 7.208 195.576 7.016 195.176 6.856C194.776 6.696 194.344 6.568 193.88 6.472C193.432 6.376 192.952 6.328 192.44 6.328C190.952 6.328 189.856 6.616 189.152 7.192C188.464 7.752 188.12 8.52 188.12 9.496C188.12 10.168 188.28 10.696 188.6 11.08C188.936 11.464 189.456 11.776 190.16 12.016C190.864 12.256 191.76 12.504 192.848 12.76C194.064 13.016 195.112 13.32 195.992 13.672C196.872 14.024 197.552 14.504 198.032 15.112C198.512 15.704 198.752 16.512 198.752 17.536C198.752 18.32 198.6 19 198.296 19.576C197.992 20.152 197.568 20.632 197.024 21.016C196.48 21.4 195.832 21.688 195.08 21.88C194.328 22.056 193.504 22.144 192.608 22.144C191.728 22.144 190.88 22.056 190.064 21.88C189.264 21.688 188.504 21.416 187.784 21.064C187.064 20.696 186.392 20.232 185.768 19.672L186.608 18.304C186.912 18.624 187.272 18.928 187.688 19.216C188.12 19.488 188.592 19.736 189.104 19.96C189.632 20.184 190.192 20.36 190.784 20.488C191.392 20.6 192.016 20.656 192.656 20.656C194.016 20.656 195.072 20.408 195.824 19.912C196.592 19.416 196.976 18.68 196.976 17.704C196.976 17 196.784 16.44 196.4 16.024C196.016 15.592 195.44 15.24 194.672 14.968C193.904 14.696 192.96 14.432 191.84 14.176C190.656 13.904 189.656 13.6 188.84 13.264C188.024 12.928 187.408 12.488 186.992 11.944C186.592 11.384 186.392 10.648 186.392 9.736C186.392 8.68 186.648 7.792 187.16 7.072C187.688 6.336 188.408 5.784 189.32 5.416C190.232 5.032 191.28 4.84 192.464 4.84C193.216 4.84 193.912 4.92 194.552 5.08C195.208 5.224 195.808 5.44 196.352 5.728C196.912 6.016 197.432 6.376 197.912 6.808L197.096 8.152Z" fill="#1C1B1B"/>
<path d="M214.096 8.152C213.856 7.88 213.576 7.64 213.256 7.432C212.936 7.208 212.576 7.016 212.176 6.856C211.776 6.696 211.344 6.568 210.88 6.472C210.432 6.376 209.952 6.328 209.44 6.328C207.952 6.328 206.856 6.616 206.152 7.192C205.464 7.752 205.12 8.52 205.12 9.496C205.12 10.168 205.28 10.696 205.6 11.08C205.936 11.464 206.456 11.776 207.16 12.016C207.864 12.256 208.76 12.504 209.848 12.76C211.064 13.016 212.112 13.32 212.992 13.672C213.872 14.024 214.552 14.504 215.032 15.112C215.512 15.704 215.752 16.512 215.752 17.536C215.752 18.32 215.6 19 215.296 19.576C214.992 20.152 214.568 20.632 214.024 21.016C213.48 21.4 212.832 21.688 212.08 21.88C211.328 22.056 210.504 22.144 209.608 22.144C208.728 22.144 207.88 22.056 207.064 21.88C206.264 21.688 205.504 21.416 204.784 21.064C204.064 20.696 203.392 20.232 202.768 19.672L203.608 18.304C203.912 18.624 204.272 18.928 204.688 19.216C205.12 19.488 205.592 19.736 206.104 19.96C206.632 20.184 207.192 20.36 207.784 20.488C208.392 20.6 209.016 20.656 209.656 20.656C211.016 20.656 212.072 20.408 212.824 19.912C213.592 19.416 213.976 18.68 213.976 17.704C213.976 17 213.784 16.44 213.4 16.024C213.016 15.592 212.44 15.24 211.672 14.968C210.904 14.696 209.96 14.432 208.84 14.176C207.656 13.904 206.656 13.6 205.84 13.264C205.024 12.928 204.408 12.488 203.992 11.944C203.592 11.384 203.392 10.648 203.392 9.736C203.392 8.68 203.648 7.792 204.16 7.072C204.688 6.336 205.408 5.784 206.32 5.416C207.232 5.032 208.28 4.84 209.464 4.84C210.216 4.84 210.912 4.92 211.552 5.08C212.208 5.224 212.808 5.44 213.352 5.728C213.912 6.016 214.432 6.376 214.912 6.808L214.096 8.152Z" fill="#1C1B1B"/>
<path d="M136.076 22.0003V5H143.259C143.994 5 144.664 5.15165 145.271 5.45494C145.877 5.75823 146.404 6.17326 146.851 6.70003C147.314 7.21083 147.665 7.78549 147.905 8.424C148.16 9.04654 148.288 9.68505 148.288 10.3395C148.288 11.1536 148.128 11.9198 147.809 12.6381C147.505 13.3565 147.066 13.963 146.492 14.4579C145.933 14.9527 145.271 15.28 144.504 15.4396L148.671 22.0003H146.779L142.781 15.7269H137.752V22.0003H136.076ZM136.076 14.2062L143.307 14.2424C143.978 14.2424 144.56 14.0588 145.055 13.6917C145.55 13.3245 145.933 12.8457 146.204 12.255C146.476 11.6485 146.612 11.01 146.612 10.3395C146.612 9.65312 146.452 9.0226 146.133 8.44794C145.829 7.85732 145.414 7.38642 144.888 7.03524C144.377 6.6681 143.802 6.48453 143.164 6.48453H136.076V14.2062Z" fill="#1C1B1B"/>
<path d="M128 5H129.5V21.9961L128 21.9949V5Z" fill="#1C1B1B"/>
<path d="M66 13.9961C66 12.6896 66.2213 11.488 66.6639 10.3913C67.1066 9.29448 67.7213 8.35093 68.5082 7.56061C69.2951 6.75416 70.2377 6.12513 71.3361 5.67351C72.4508 5.2219 73.6721 4.99609 75 4.99609C76.3279 4.99609 77.541 5.2219 78.6393 5.67351C79.7541 6.12513 80.7049 6.75416 81.4918 7.56061C82.2787 8.35093 82.8934 9.29448 83.3361 10.3913C83.7787 11.488 84 12.6896 84 13.9961C84 15.3025 83.7787 16.5122 83.3361 17.6251C82.8934 18.7219 82.2787 19.6735 81.4918 20.48C80.7049 21.2703 79.7541 21.8913 78.6393 22.3429C77.541 22.7784 76.3279 22.9961 75 22.9961C73.6721 22.9961 72.4508 22.7784 71.3361 22.3429C70.2377 21.8913 69.2951 21.2703 68.5082 20.48C67.7213 19.6735 67.1066 18.7219 66.6639 17.6251C66.2213 16.5122 66 15.3025 66 13.9961ZM67.623 13.9961C67.623 15.0606 67.7951 16.0525 68.1393 16.9719C68.4836 17.8913 68.9754 18.6896 69.6147 19.3671C70.2541 20.0445 71.0246 20.5767 71.9262 20.9638C72.8443 21.3509 73.8689 21.5445 75 21.5445C76.1311 21.5445 77.1475 21.3509 78.0492 20.9638C78.9672 20.5767 79.7459 20.0445 80.3852 19.3671C81.0246 18.6896 81.5164 17.8913 81.8607 16.9719C82.2049 16.0525 82.377 15.0606 82.377 13.9961C82.377 12.9316 82.2049 11.9396 81.8607 11.0203C81.5164 10.1009 81.0246 9.30254 80.3852 8.62513C79.7459 7.94771 78.9672 7.41545 78.0492 7.02835C77.1475 6.64126 76.1311 6.44771 75 6.44771C73.8689 6.44771 72.8443 6.64126 71.9262 7.02835C71.0246 7.41545 70.2541 7.94771 69.6147 8.62513C68.9754 9.30254 68.4836 10.1009 68.1393 11.0203C67.7951 11.9396 67.623 12.9316 67.623 13.9961Z" fill="#1C1B1B"/>
<path d="M37 5L38.4997 5.00195V20.4984H47.9975V21.998L37 21.9961V5Z" fill="#1C1B1B"/>
<path d="M52 5L53.4997 5.00195V20.4984H62.9975V21.998L52 21.9961V5Z" fill="#1C1B1B"/>
<path d="M20 5H31.9094V6.49966H20V12.7317H31.9094V14.391H20V20.4964H31.9094V21.9961H20V5Z" fill="#1C1B1B"/>
<path d="M169 5H180.909V6.49966H169V12.7317H180.909V14.391H169V20.4964H180.909V21.9961H169V5Z" fill="#1C1B1B"/>
<path d="M0.00781071 5H2.00735V12.9982H7.50609H13.0048V5H15.0044V13.498V21.9961H13.0048V13.9979H7.50609H2.00735V21.9961H1.00758H0L0.00781071 5Z" fill="#1C1B1B"/>
<path d="M89.0078 5H91.0074V12.9982H96.5061H102.005V5H104.004V13.498V21.9961H102.005V13.9979H96.5061H91.0074V21.9961H90.0076H89L89.0078 5Z" fill="#1C1B1B"/>
<path d="M154 5H155.5V20.4964H164.997V21.998L154 21.9961V5Z" fill="#1C1B1B"/>
<path d="M115.209 5H116.5L123.469 22.0003H121.743L119.223 15.5369L112.5 15.5L110.029 22.0003H108.279L115.209 5ZM119.223 15.5369L115.886 7.34693L112.5 15.5L119.223 15.5369Z" fill="#1C1B1B"/>
</svg>
